# xmcd
#
# Track frame offsets:
#	150
#	12319
#	21700
#	31933
#	40572
#	52566
#	65395
#	77052
#	88914
#	99678
#	109011
#	121000
#	130711
#	140580
#	149977
#	161724
#	172953
#	180909
#	192342
#	202737
#	212286
#	221824
#	233709
#	243216
#	253957
#	267300
#
# Disc length: 3723 seconds
#
# Revision: 1
# Processed by: cddbd v1.5.2PL0 Copyright (c) Steve Scherf et al.
# Submitted via: EZCDAudioConverter 8.5.0.1
#
DISCID=690e891a
DTITLE=Various Artist - Greatest Country Hits of 1957 [CD2]
DYEAR=2008
DGENRE=Country
TTITLE0=The Everly Brothers - Bye Bye Love
TTITLE1=Jim Lowe - Talkin to the Blues
TTITLE2=Jimmy C. Newman - A Fallen Star
TTITLE3=Webb Pierce - Bye Bye Love
TTITLE4=Webb Pierce - Missing You
TTITLE5=Jerry Lee Lewis - Whole Lotta Shakin' Goin' On
TTITLE6=Hank Snow - Tangled Mind
TTITLE7=Hank Snow - My Arms Are a House
TTITLE8=Ernest Tubb - Mister Love
TTITLE9=Elvis Presley - Teddy Bear
TTITLE10=Ray Price - My Shoes Keep Walking Back to You
TTITLE11=Jim Reeves - Two Shadows on Your Window
TTITLE12=The Everly Brothers - Wake Up Little Susie
TTITLE13=The Browns - I Heard the Bluebirds Sing
TTITLE14=Webb Pierce - Holiday for Love
TTITLE15=Johnny Cash - Home of the Blues
TTITLE16=Carl Smith - Why Why
TTITLE17=Bobby Helms - My Special Angel
TTITLE18=Jimmie F. Rodgers - Honeycomb
TTITLE19=Elvis Presley - Jailhouse Rock
TTITLE20=Marty Robbins - The Story of My Life
TTITLE21=Jimmie Skinner - I Found My Girl in the USA
TTITLE22=Jerry Lee Lewis - Great Balls of Fire
TTITLE23=Jerry Lee Lewis - You Win Again
TTITLE24=Jim Reeves - Anna Marie
TTITLE25=Jimmie F. Rodgers - Kisses Sweeter Than Wine
EXTD=
EXTT0=
EXTT1=
EXTT2=
EXTT3=
EXTT4=
EXTT5=
EXTT6=
EXTT7=
EXTT8=
EXTT9=
EXTT10=
EXTT11=
EXTT12=
EXTT13=
EXTT14=
EXTT15=
EXTT16=
EXTT17=
EXTT18=
EXTT19=
EXTT20=
EXTT21=
EXTT22=
EXTT23=
EXTT24=
EXTT25=
PLAYORDER=
